<svg
            xmlns="http://www.w3.org/2000/svg"
            width="40"
            height="40"
            viewBox="0 0 341 251"
            fill="none"
            className="h-5 "
          >
            <path
              d="M341 0.5V81.4132C341 148.497 286.005 202.552 218.931 201.395L196 201V162.5H211C260.706 162.5 301 122.206 301 72.5V35.5H196V183L255.25 162.5H298C321.748 162.5 341 181.752 341 205.5V205.5V250.5H301V226.655V226.655C301 213.42 290.392 202.627 277.159 202.399L196 201V250.5H159V35.5H134C84.2944 35.5 44 75.7944 44 125.5V162.5H159V203.5H44V250.5H0.5V120.5C0.5 54.2258 54.2258 0.5 120.5 0.5H159H341Z"
              fill="#888888"
            />
          </svg>